<svg width="139" height="29" viewBox="0 0 139 29" fill="none" xmlns="http://www.w3.org/2000/svg">
<path d="M43.4108 18.8295H39.7012V9.13258H43.3731C44.3648 9.13258 45.2216 9.3267 45.9435 9.71496C46.6684 10.1001 47.2271 10.6556 47.6194 11.3816C48.0148 12.1045 48.2125 12.971 48.2125 13.9811C48.2125 14.9912 48.0164 15.8592 47.6241 16.5852C47.2318 17.3081 46.6763 17.8636 45.9576 18.2519C45.2389 18.637 44.3899 18.8295 43.4108 18.8295ZM42.3186 16.5947H43.3166C43.7937 16.5947 44.2001 16.5174 44.5359 16.3627C44.8748 16.208 45.1322 15.9413 45.3079 15.5625C45.4868 15.1837 45.5763 14.6566 45.5763 13.9811C45.5763 13.3056 45.4852 12.7784 45.3032 12.3996C45.1243 12.0208 44.8607 11.7541 44.5123 11.5994C44.1671 11.4448 43.7434 11.3674 43.2413 11.3674H42.3186V16.5947Z" fill="white"/>
<path d="M52.3801 18.8295H49.5555L52.7378 9.13258H56.3156L59.498 18.8295H56.6734L54.5644 11.803H54.4891L52.3801 18.8295ZM51.8528 15.0038H57.163V16.9735H51.8528V15.0038Z" fill="white"/>
<path d="M60.0065 11.2538V9.13258H68.3861V11.2538H65.4862V18.8295H62.9064V11.2538H60.0065Z" fill="white"/>
<path d="M71.7192 18.8295H68.8946L72.077 9.13258H75.6548L78.8371 18.8295H76.0125L73.9035 11.803H73.8282L71.7192 18.8295ZM71.1919 15.0038H76.5021V16.9735H71.1919V15.0038Z" fill="white"/>
<path d="M82.0313 18.9053C81.7991 18.9053 81.5998 18.8217 81.4335 18.6544C81.2671 18.4871 81.184 18.2866 81.184 18.053C81.184 17.8194 81.2671 17.619 81.4335 17.4517C81.5998 17.2844 81.7991 17.2008 82.0313 17.2008C82.2636 17.2008 82.4629 17.2844 82.6292 17.4517C82.7955 17.619 82.8787 17.8194 82.8787 18.053C82.8787 18.2077 82.8395 18.3497 82.761 18.4792C82.6857 18.6086 82.5837 18.7128 82.455 18.7917C82.3295 18.8674 82.1883 18.9053 82.0313 18.9053Z" fill="white"/>
<path d="M90.0003 18.9621C89.1466 18.9621 88.3966 18.7601 87.75 18.3561C87.1067 17.952 86.6045 17.3775 86.2436 16.6326C85.8858 15.8876 85.707 15.0038 85.707 13.9811C85.707 13.214 85.8121 12.5243 86.0224 11.9119C86.2326 11.2964 86.5276 10.7724 86.9074 10.34C87.2903 9.90751 87.7406 9.57607 88.2585 9.34564C88.7794 9.11521 89.3475 9 89.9626 9C90.471 9 90.9481 9.07734 91.3937 9.23201C91.8394 9.38352 92.2395 9.59975 92.5942 9.88068C92.952 10.1585 93.2485 10.4915 93.4839 10.8797C93.7224 11.2648 93.8856 11.6926 93.9735 12.1629H92.7684C92.6711 11.8441 92.5361 11.5584 92.3635 11.3059C92.1909 11.0502 91.9838 10.8324 91.7421 10.6525C91.5004 10.4725 91.2305 10.3352 90.9324 10.2405C90.6342 10.1458 90.311 10.0985 89.9626 10.0985C89.3914 10.0985 88.8689 10.2468 88.395 10.5436C87.9211 10.8403 87.5429 11.2775 87.2605 11.8551C86.978 12.4328 86.8368 13.1414 86.8368 13.9811C86.8368 14.8207 86.9764 15.5294 87.2558 16.107C87.5351 16.6847 87.9132 17.1218 88.3903 17.4186C88.8673 17.7153 89.404 17.8636 90.0003 17.8636C90.5746 17.8636 91.0783 17.7374 91.5114 17.4848C91.9477 17.2292 92.2882 16.8788 92.533 16.4337C92.7778 15.9855 92.9002 15.4741 92.9002 14.8996L93.0508 15.0227H90.2639V13.9811H94.03V18.8295H93.0508L92.9096 17.6458H92.8625C92.4953 18.0688 92.0858 18.3939 91.6338 18.6212C91.1819 18.8485 90.6374 18.9621 90.0003 18.9621Z" fill="white"/>
<path d="M105.221 13.9811C105.221 15.0038 105.038 15.8876 104.671 16.6326C104.303 17.3775 103.8 17.952 103.159 18.3561C102.519 18.7601 101.788 18.9621 100.966 18.9621C100.143 18.9621 99.4121 18.7601 98.7719 18.3561C98.1316 17.952 97.6279 17.3775 97.2607 16.6326C96.8935 15.8876 96.7099 15.0038 96.7099 13.9811C96.7099 12.9583 96.8935 12.0745 97.2607 11.3295C97.6279 10.5846 98.1316 10.0101 98.7719 9.60606C99.4121 9.20202 100.143 9 100.966 9C101.788 9 102.519 9.20202 103.159 9.60606C103.8 10.0101 104.303 10.5846 104.671 11.3295C105.038 12.0745 105.221 12.9583 105.221 13.9811ZM104.091 13.9811C104.091 13.1414 103.952 12.4328 103.672 11.8551C103.396 11.2775 103.021 10.8403 102.547 10.5436C102.077 10.2468 101.549 10.0985 100.966 10.0985C100.382 10.0985 99.8531 10.2468 99.3792 10.5436C98.9084 10.8403 98.5334 11.2775 98.254 11.8551C97.9779 12.4328 97.8398 13.1414 97.8398 13.9811C97.8398 14.8207 97.9779 15.5294 98.254 16.107C98.5334 16.6847 98.9084 17.1218 99.3792 17.4186C99.8531 17.7153 100.382 17.8636 100.966 17.8636C101.549 17.8636 102.077 17.7153 102.547 17.4186C103.021 17.1218 103.396 16.6847 103.672 16.107C103.952 15.5294 104.091 14.8207 104.091 13.9811Z" fill="white"/>
<path d="M108.187 9.13258L111.049 17.2955H111.162L114.025 9.13258H115.249L111.709 18.8295H110.503L106.963 9.13258H108.187Z" fill="white"/>
<path d="M117.188 18.9053C116.956 18.9053 116.757 18.8217 116.59 18.6544C116.424 18.4871 116.341 18.2866 116.341 18.053C116.341 17.8194 116.424 17.619 116.59 17.4517C116.757 17.2844 116.956 17.2008 117.188 17.2008C117.421 17.2008 117.62 17.2844 117.786 17.4517C117.953 17.619 118.036 17.8194 118.036 18.053C118.036 18.2077 117.996 18.3497 117.918 18.4792C117.843 18.6086 117.741 18.7128 117.612 18.7917C117.486 18.8674 117.345 18.9053 117.188 18.9053Z" fill="white"/>
<path d="M126.513 11.5568C126.457 11.077 126.227 10.7045 125.826 10.4394C125.424 10.1742 124.931 10.0417 124.348 10.0417C123.921 10.0417 123.547 10.1111 123.227 10.25C122.91 10.3889 122.662 10.5799 122.483 10.8229C122.308 11.066 122.22 11.3422 122.22 11.6515C122.22 11.9104 122.281 12.1329 122.403 12.3191C122.529 12.5022 122.689 12.6553 122.883 12.7784C123.078 12.8984 123.282 12.9978 123.495 13.0767C123.709 13.1525 123.905 13.214 124.084 13.2614L125.063 13.5265C125.314 13.5928 125.593 13.6843 125.901 13.8011C126.212 13.9179 126.508 14.0773 126.791 14.2794C127.076 14.4782 127.312 14.7339 127.497 15.0464C127.682 15.3589 127.775 15.7424 127.775 16.197C127.775 16.721 127.638 17.1944 127.365 17.6174C127.095 18.0404 126.7 18.3766 126.179 18.6259C125.661 18.8753 125.032 19 124.291 19C123.601 19 123.003 18.8879 122.497 18.6638C121.995 18.4397 121.6 18.1272 121.311 17.7263C121.026 17.3254 120.864 16.8598 120.826 16.3295H122.031C122.063 16.6957 122.185 16.9987 122.399 17.2386C122.615 17.4754 122.888 17.6521 123.218 17.7689C123.55 17.8826 123.908 17.9394 124.291 17.9394C124.737 17.9394 125.137 17.8668 125.491 17.7216C125.846 17.5732 126.127 17.3681 126.334 17.1061C126.541 16.8409 126.645 16.5316 126.645 16.178C126.645 15.8561 126.555 15.5941 126.377 15.392C126.198 15.19 125.962 15.0259 125.67 14.8996C125.379 14.7734 125.063 14.6629 124.724 14.5682L123.538 14.2273C122.785 14.0095 122.188 13.6985 121.749 13.2945C121.31 12.8905 121.09 12.3617 121.09 11.7083C121.09 11.1654 121.236 10.6919 121.528 10.2879C121.823 9.88068 122.218 9.56503 122.714 9.34091C123.213 9.11364 123.77 9 124.385 9C125.007 9 125.559 9.11206 126.042 9.33617C126.526 9.55713 126.908 9.86016 127.191 10.2453C127.477 10.6304 127.627 11.0676 127.643 11.5568H126.513Z" fill="white"/>
<path d="M134.671 18.9621C133.818 18.9621 133.068 18.7601 132.421 18.3561C131.778 17.952 131.276 17.3775 130.915 16.6326C130.557 15.8876 130.378 15.0038 130.378 13.9811C130.378 13.214 130.483 12.5243 130.694 11.9119C130.904 11.2964 131.199 10.7724 131.579 10.34C131.961 9.90751 132.412 9.57607 132.93 9.34564C133.451 9.11521 134.019 9 134.634 9C135.142 9 135.619 9.07734 136.065 9.23201C136.511 9.38352 136.911 9.59975 137.265 9.88068C137.623 10.1585 137.92 10.4915 138.155 10.8797C138.394 11.2648 138.557 11.6926 138.645 12.1629H137.44C137.342 11.8441 137.207 11.5584 137.035 11.3059C136.862 11.0502 136.655 10.8324 136.413 10.6525C136.172 10.4725 135.902 10.3352 135.604 10.2405C135.305 10.1458 134.982 10.0985 134.634 10.0985C134.063 10.0985 133.54 10.2468 133.066 10.5436C132.592 10.8403 132.214 11.2775 131.932 11.8551C131.649 12.4328 131.508 13.1414 131.508 13.9811C131.508 14.8207 131.648 15.5294 131.927 16.107C132.206 16.6847 132.584 17.1218 133.061 17.4186C133.538 17.7153 134.075 17.8636 134.671 17.8636C135.246 17.8636 135.75 17.7374 136.183 17.4848C136.619 17.2292 136.959 16.8788 137.204 16.4337C137.449 15.9855 137.571 15.4741 137.571 14.8996L137.722 15.0227H134.935V13.9811H138.701V18.8295H137.722L137.581 17.6458H137.534C137.166 18.0688 136.757 18.3939 136.305 18.6212C135.853 18.8485 135.309 18.9621 134.671 18.9621Z" fill="white"/>
<path fill-rule="evenodd" clip-rule="evenodd" d="M17.2752 4.7002H11.1155L8.12685 10.0435L11.1218 15.2167H17.2688L20.3545 10.0437L17.2752 4.7002ZM16.5386 5.97492L18.8768 10.0325L16.5449 13.942H11.8568L9.5935 10.0327L11.8631 5.97492H16.5386Z" fill="white"/>
<path fill-rule="evenodd" clip-rule="evenodd" d="M9.14825 9.24219H2.98855L-0.000103951 14.5855L2.99487 19.7587H9.14188L12.2275 14.5857L9.14825 9.24219ZM8.4116 10.5169L10.7499 14.5745L8.41797 18.4839H3.72982L1.46655 14.5747L3.73614 10.5169H8.4116Z" fill="white"/>
<path d="M8.78047 28.3629L11.4893 23.8216L8.78047 19.1211H3.36288L0.733763 23.8216L3.36288 28.3629H8.78047Z" fill="white"/>
<path fill-rule="evenodd" clip-rule="evenodd" d="M9.14825 18.4834H2.98855L-0.000103951 23.8267L2.99487 28.9999H9.14188L12.2275 23.8269L9.14825 18.4834ZM8.4116 19.7581L10.7499 23.8158L8.41797 27.7252H3.72982L1.46655 23.8159L3.73614 19.7581H8.4116Z" fill="white"/>
<path d="M8.78047 9.87945L11.4893 5.33824L8.78047 0.637695H3.36288L0.733763 5.33824L3.36288 9.87945H8.78047Z" fill="white"/>
<path fill-rule="evenodd" clip-rule="evenodd" d="M9.14825 0H2.98855L-0.000103951 5.34335L2.99487 10.5165H9.14188L12.2275 5.34347L9.14825 0ZM8.4116 1.27473L10.7499 5.33235L8.41797 9.24176H3.72982L1.46655 5.33248L3.73614 1.27473H8.4116Z" fill="white"/>
<path fill-rule="evenodd" clip-rule="evenodd" d="M17.2752 13.8623H11.1155L8.12685 19.2057L11.1218 24.3788H17.2688L20.3545 19.2058L17.2752 13.8623ZM16.5386 15.137L18.8768 19.1947L16.5449 23.1041H11.8568L9.5935 19.1948L11.8631 15.137H16.5386Z" fill="white"/>
<path d="M25.0334 19.1207L27.7422 14.5795L25.0334 9.87891H19.6158L16.9867 14.5795L19.6158 19.1207H25.0334Z" fill="white"/>
<path fill-rule="evenodd" clip-rule="evenodd" d="M25.4012 9.24219H19.2415L16.2528 14.5855L19.2478 19.7587H25.3948L28.4805 14.5857L25.4012 9.24219ZM24.6645 10.5169L27.0028 14.5745L24.6709 18.4839H19.9827L17.7195 14.5747L19.9891 10.5169H24.6645Z" fill="white"/>
</svg>
